<?xml version="1.0" encoding="UTF-8" standalone="no"?>
<!-- Created with Inkscape (http://www.inkscape.org/) -->
<svg
   xmlns:dc="http://purl.org/dc/elements/1.1/"
   xmlns:cc="http://web.resource.org/cc/"
   xmlns:rdf="http://www.w3.org/1999/02/22-rdf-syntax-ns#"
   xmlns:svg="http://www.w3.org/2000/svg"
   xmlns="http://www.w3.org/2000/svg"
   xmlns:sodipodi="http://sodipodi.sourceforge.net/DTD/sodipodi-0.dtd"
   xmlns:inkscape="http://www.inkscape.org/namespaces/inkscape"
   width="504.04733"
   height="587.83118"
   id="svg3040"
   sodipodi:version="0.32"
   inkscape:version="0.45.1"
   version="1.0"
   sodipodi:docbase="C:\Documents and Settings\Jack\Desktop"
   sodipodi:docname="drawing.svg"
   inkscape:output_extension="org.inkscape.output.svg.inkscape">
  <defs
     id="defs3042" />
  <sodipodi:namedview
     id="base"
     pagecolor="#ffffff"
     bordercolor="#666666"
     borderopacity="1.0"
     gridtolerance="10000"
     guidetolerance="10"
     objecttolerance="10"
     inkscape:pageopacity="0.0"
     inkscape:pageshadow="2"
     inkscape:zoom="0.35"
     inkscape:cx="375"
     inkscape:cy="402.51014"
     inkscape:document-units="px"
     inkscape:current-layer="layer1"
     width="744.09px"
     height="1052.3622px"
     inkscape:window-width="744"
     inkscape:window-height="573"
     inkscape:window-x="48"
     inkscape:window-y="0" />
  <metadata
     id="metadata3045">
    <rdf:RDF>
      <cc:Work
         rdf:about="">
        <dc:format>image/svg+xml</dc:format>
        <dc:type
           rdf:resource="http://purl.org/dc/dcmitype/StillImage" />
      </cc:Work>
    </rdf:RDF>
  </metadata>
  <g
     inkscape:label="Layer 1"
     inkscape:groupmode="layer"
     id="layer1"
     transform="translate(0.5951012,-1.3037294)">
    <g
       transform="matrix(3.4464775e-2,0,0,3.4464775e-2,-112.60562,-192.56063)"
       visibility="visible"
       id="page3"
       style="visibility:visible">
      <desc
         id="desc2691">Slide</desc>
      <g
         id="g2693">
        <desc
           id="desc2695">Drawing</desc>
        <g
           id="g2697">
          <g
             id="g2699">
            <g
               style="font-size:1270px;font-weight:700;font-family:Courier New embedded"
               id="g2701">
              <g
                 style="fill:#000000;stroke:none"
                 id="g2703">
                <text
                   id="text2705">
                  <tspan
                     x="4119"
                     y="22681"
                     id="tspan2707">x</tspan>
                </text>
              </g>
            </g>
          </g>
        </g>
      </g>
      <g
         id="g2709">
        <desc
           id="desc2711">Drawing</desc>
        <g
           id="g2713">
          <g
             id="g2715">
            <g
               style="font-size:1270px;font-weight:700;font-family:Courier New embedded"
               id="g2717">
              <g
                 style="fill:#000000;stroke:none"
                 id="g2719">
                <text
                   id="text2721">
                  <tspan
                     x="12044"
                     y="21296"
                     id="tspan2723">Q</tspan>
                </text>
              </g>
            </g>
          </g>
        </g>
      </g>
      <g
         id="g2725">
        <desc
           id="desc2727">Drawing</desc>
        <g
           id="g2729">
          <g
             id="g2731">
            <g
               style="font-size:1270px;font-weight:700;font-family:Courier New embedded"
               id="g2733">
              <g
                 style="fill:#000000;stroke:none"
                 id="g2735">
                <text
                   id="text2737">
                  <tspan
                     x="16369"
                     y="18346"
                     id="tspan2739">y</tspan>
                </text>
              </g>
            </g>
          </g>
        </g>
      </g>
      <g
         id="g2741">
        <desc
           id="desc2743">Drawing</desc>
        <g
           id="g2745">
          <g
             id="g2747">
            <g
               style="font-size:1269px;font-weight:700;font-family:Courier New embedded"
               id="g2749">
              <g
                 style="fill:#000000;stroke:none"
                 id="g2751">
                <text
                   id="text2753">
                  <tspan
                     x="6594"
                     y="17371"
                     id="tspan2755">O</tspan>
                </text>
              </g>
            </g>
          </g>
        </g>
      </g>
      <g
         id="g2757">
        <desc
           id="desc2759">Drawing</desc>
        <g
           id="g2761">
          <g
             id="g2763">
            <g
               style="font-size:1269px;font-weight:700;font-family:Courier New embedded"
               id="g2765">
              <g
                 style="fill:#000000;stroke:none"
                 id="g2767">
                <text
                   id="text2769">
                  <tspan
                     x="12319"
                     y="12171"
                     id="tspan2771">P</tspan>
                </text>
              </g>
            </g>
          </g>
        </g>
      </g>
      <g
         id="g2773">
        <desc
           id="desc2775">Drawing</desc>
        <g
           id="g2777">
          <g
             id="g2779">
            <g
               style="font-size:1269px;font-weight:700;font-family:Courier New embedded"
               id="g2781">
              <g
                 style="fill:#000000;stroke:none"
                 id="g2783">
                <text
                   id="text2785">
                  <tspan
                     x="6819"
                     y="8171"
                     id="tspan2787">Z</tspan>
                </text>
              </g>
            </g>
          </g>
        </g>
      </g>
      <g
         id="g2789">
        <desc
           id="desc2791">Drawing</desc>
        <g
           id="g2793">
          <g
             id="g2795">
            <g
               style="font-size:1269px;font-weight:700;font-family:Lucida Sans Typewriter embedded"
               id="g2797">
              <g
                 style="fill:#000000;stroke:none"
                 id="g2799">
                <text
                   id="text2801">
                  <tspan
                     x="9969"
                     y="13565"
                     id="tspan2803">ρ</tspan>
                </text>
              </g>
            </g>
          </g>
        </g>
      </g>
      <g
         id="g2805">
        <desc
           id="desc2807">Drawing</desc>
        <g
           id="g2809">
          <g
             id="g2811">
            <g
               style="font-size:1269px;font-weight:700;font-family:Lucida Sans Typewriter embedded"
               id="g2813">
              <g
                 style="fill:#000000;stroke:none"
                 id="g2815">
                <text
                   id="text2817">
                  <tspan
                     x="10044"
                     y="18824"
                     id="tspan2819">ρ</tspan>
                </text>
              </g>
            </g>
            <g
               style="font-size:1269px;font-weight:700;font-family:Lucida Sans embedded"
               id="g2821">
              <g
                 style="fill:#000000;stroke:none"
                 id="g2823">
                <text
                   id="text2825">
                  <tspan
                     x="10810"
                     y="18824"
                     id="tspan2827">'</tspan>
                </text>
              </g>
            </g>
          </g>
        </g>
      </g>
      <g
         id="g2829">
        <desc
           id="desc2831">Drawing</desc>
        <g
           id="g2833">
          <g
             id="g2835">
            <g
               style="font-size:1269px;font-weight:700;font-family:Lucida Sans Typewriter embedded"
               id="g2837">
              <g
                 style="fill:#000000;stroke:none"
                 id="g2839">
                <text
                   id="text2841">
                  <tspan
                     x="7369"
                     y="20115"
                     id="tspan2843">Ф</tspan>
                </text>
              </g>
            </g>
          </g>
        </g>
      </g>
      <g
         id="g2845">
        <desc
           id="desc2847">Drawing</desc>
        <g
           id="g2849">
          <g
             id="g2851">
            <g
               style="font-size:1270px;font-weight:700;font-family:Lucida Sans Typewriter embedded"
               id="g2853">
              <g
                 style="fill:#000000;stroke:none"
                 id="g2855">
                <text
                   id="text2857">
                  <tspan
                     x="8069"
                     y="14690"
                     id="tspan2859">Ө</tspan>
                </text>
              </g>
            </g>
          </g>
        </g>
      </g>
      <g
         id="g2861">
        <desc
           id="desc2863">Group</desc>
        <g
           id="g2865">
          <desc
             id="desc2867">Drawing</desc>
          <g
             id="g2869">
            <g
               style="fill:#000000;stroke:none"
               id="g2871">
              <path
                 d="M 3250,22500 L 3471,21993 L 3731,22227 L 3250,22500 z "
                 id="path2873" />
              <path
                 d="M 7787,17533 L 3568,22221 L 3494,22154 L 7713,17467 L 7787,17533 z "
                 id="path2875" />
            </g>
            <g
               id="g2877" />
          </g>
        </g>
        <g
           id="g2879">
          <desc
             id="desc2881">Drawing</desc>
          <g
             id="g2883">
            <g
               style="fill:#000000;stroke:none"
               id="g2885">
              <path
                 d="M 7779,17460 L 11904,20460 L 11846,20540 L 7721,17540 L 7779,17460 z "
                 id="path2887" />
            </g>
            <g
               id="g2889" />
          </g>
        </g>
        <g
           id="g2891">
          <desc
             id="desc2893">Drawing</desc>
          <g
             id="g2895">
            <g
               style="fill:#000000;stroke:none"
               id="g2897">
              <path
                 d="M 17875,17500 L 17350,17675 L 17350,17325 L 17875,17500 z "
                 id="path2899" />
              <path
                 d="M 7750,17450 L 17455,17450 L 17455,17550 L 7750,17550 L 7750,17450 z "
                 id="path2901" />
            </g>
            <g
               id="g2903" />
          </g>
        </g>
        <g
           id="g2905">
          <desc
             id="desc2907">Drawing</desc>
          <g
             id="g2909">
            <g
               style="fill:#000000;stroke:none"
               id="g2911">
              <path
                 d="M 7750,5625 L 7925,6150 L 7575,6150 L 7750,5625 z "
                 id="path2913" />
              <path
                 d="M 7700,17500 L 7700,6045 L 7800,6045 L 7800,17500 L 7700,17500 z "
                 id="path2915" />
            </g>
            <g
               id="g2917" />
          </g>
        </g>
        <g
           id="g2919">
          <desc
             id="desc2921">Drawing</desc>
          <g
             id="g2923">
            <g
               style="fill:#000000;stroke:none"
               id="g2925">
              <path
                 d="M 11686,12537 L 11659,12498 L 11638,12452 L 11626,12402 L 11627,12350 L 11638,12301 L 11656,12257 L 11681,12218 L 11713,12186 L 11753,12158 L 11799,12137 L 11848,12126 L 11900,12127 L 11949,12138 L 11994,12155 L 12033,12181 L 12065,12212 L 12092,12253 L 12112,12298 L 12124,12348 L 12124,12399 L 12113,12448 L 12094,12493 L 12070,12531 L 12037,12564 L 11998,12591 L 11952,12612 L 11902,12624 L 11850,12623 L 11802,12613 L 11757,12594 L 11719,12570 L 11686,12537 z "
                 id="path2927" />
              <path
                 d="M 7711,17469 L 11711,12499 L 11789,12562 L 7789,17531 L 7711,17469 z "
                 id="path2929" />
            </g>
            <g
               id="g2931" />
          </g>
        </g>
        <g
           id="g2933">
          <desc
             id="desc2935">Drawing</desc>
          <g
             id="g2937">
            <g
               style="fill:#000000;stroke:none"
               id="g2939">
              <path
                 d="M 11925,12375 L 11925,20500 L 11825,20500 L 11825,12375 L 11925,12375 z "
                 id="path2941" />
            </g>
            <g
               id="g2943" />
          </g>
        </g>
        <g
           id="g2945">
          <desc
             id="desc2947">Drawing</desc>
          <g
             id="g2949">
            <g
               style="fill:#000000;stroke:none"
               id="g2951">
              <path
                 d="M 9108,18489 L 8717,18880 L 8560,18567 L 9108,18489 z "
                 id="path2953" />
              <path
                 d="M 6641,18703 L 6876,18782 L 6860,18830 L 6844,18877 L 6609,18797 L 6625,18750 L 6641,18703 z "
                 id="path2955" />
              <path
                 d="M 6860,18830 L 6849,18878 L 6844,18877 L 6860,18830 z "
                 id="path2957" />
              <path
                 d="M 6871,18781 L 7105,18834 L 7093,18883 L 7082,18932 L 6849,18878 L 6860,18830 L 6871,18781 z "
                 id="path2959" />
              <path
                 d="M 7093,18883 L 7087,18932 L 7082,18932 L 7093,18883 z "
                 id="path2961" />
              <path
                 d="M 7100,18833 L 7331,18863 L 7324,18913 L 7318,18962 L 7087,18932 L 7093,18883 L 7100,18833 z "
                 id="path2963" />
              <path
                 d="M 7324,18913 L 7322,18962 L 7318,18962 L 7324,18913 z "
                 id="path2965" />
              <path
                 d="M 7326,18863 L 7552,18872 L 7550,18922 L 7548,18972 L 7322,18962 L 7324,18913 L 7326,18863 z "
                 id="path2967" />
              <path
                 d="M 7550,18922 L 7552,18972 L 7548,18972 L 7550,18922 z "
                 id="path2969" />
              <path
                 d="M 7548,18872 L 7767,18863 L 7769,18913 L 7771,18963 L 7552,18972 L 7550,18922 L 7548,18872 z "
                 id="path2971" />
              <path
                 d="M 7769,18913 L 7775,18963 L 7771,18963 L 7769,18913 z "
                 id="path2973" />
              <path
                 d="M 7764,18864 L 7973,18840 L 7979,18890 L 7984,18940 L 7775,18963 L 7769,18913 L 7764,18864 z "
                 id="path2975" />
              <path
                 d="M 7979,18890 L 7987,18939 L 7984,18940 L 7979,18890 z "
                 id="path2977" />
              <path
                 d="M 7970,18841 L 8168,18806 L 8177,18855 L 8186,18904 L 7987,18939 L 7979,18890 L 7970,18841 z "
                 id="path2979" />
              <path
                 d="M 8177,18855 L 8189,18904 L 8186,18904 L 8177,18855 z "
                 id="path2981" />
              <path
                 d="M 8165,18806 L 8350,18762 L 8362,18811 L 8373,18860 L 8189,18904 L 8177,18855 L 8165,18806 z "
                 id="path2983" />
              <path
                 d="M 8362,18811 L 8377,18859 L 8373,18860 L 8362,18811 z "
                 id="path2985" />
              <path
                 d="M 8347,18764 L 8668,18661 L 8683,18708 L 8698,18756 L 8377,18859 L 8362,18811 L 8347,18764 z "
                 id="path2987" />
              <path
                 d="M 8683,18708 L 8703,18754 L 8698,18756 L 8683,18708 z "
                 id="path2989" />
              <path
                 d="M 8664,18662 L 8724,18636 L 8744,18682 L 8764,18728 L 8703,18754 L 8683,18708 L 8664,18662 z "
                 id="path2991" />
            </g>
            <g
               id="g2993" />
          </g>
        </g>
        <g
           id="g2995">
          <desc
             id="desc2997">Drawing</desc>
          <g
             id="g2999">
            <g
               style="fill:#000000;stroke:none"
               id="g3001">
              <path
                 d="M 9318,15553 L 8777,15435 L 8956,15134 L 9318,15553 z "
                 id="path3003" />
              <path
                 d="M 7752,14950 L 7924,14956 L 7922,15006 L 7920,15056 L 7748,15050 L 7750,15000 L 7752,14950 z "
                 id="path3005" />
              <path
                 d="M 7922,15006 L 7924,14956 L 7928,14957 L 7922,15006 z "
                 id="path3007" />
              <path
                 d="M 7928,14957 L 8091,14975 L 8085,15024 L 8080,15074 L 7917,15056 L 7922,15006 L 7928,14957 z "
                 id="path3009" />
              <path
                 d="M 8085,15024 L 8091,14975 L 8094,14975 L 8085,15024 z "
                 id="path3011" />
              <path
                 d="M 8094,14975 L 8248,15003 L 8239,15052 L 8230,15102 L 8076,15074 L 8085,15024 L 8094,14975 z "
                 id="path3013" />
              <path
                 d="M 8239,15052 L 8248,15003 L 8251,15004 L 8239,15052 z "
                 id="path3015" />
              <path
                 d="M 8251,15004 L 8396,15040 L 8384,15089 L 8371,15137 L 8227,15101 L 8239,15052 L 8251,15004 z "
                 id="path3017" />
              <path
                 d="M 8384,15089 L 8396,15040 L 8399,15041 L 8384,15089 z "
                 id="path3019" />
              <path
                 d="M 8399,15041 L 8533,15084 L 8518,15131 L 8503,15179 L 8368,15136 L 8384,15089 L 8399,15041 z "
                 id="path3021" />
              <path
                 d="M 8518,15131 L 8533,15084 L 8536,15085 L 8518,15131 z "
                 id="path3023" />
              <path
                 d="M 8536,15085 L 8661,15132 L 8643,15179 L 8625,15226 L 8500,15178 L 8518,15131 L 8536,15085 z "
                 id="path3025" />
              <path
                 d="M 8643,15179 L 8661,15132 L 8664,15134 L 8643,15179 z "
                 id="path3027" />
              <path
                 d="M 8664,15134 L 8884,15237 L 8863,15282 L 8842,15327 L 8622,15224 L 8643,15179 L 8664,15134 z "
                 id="path3029" />
              <path
                 d="M 8863,15282 L 8884,15237 L 8888,15239 L 8863,15282 z "
                 id="path3031" />
              <path
                 d="M 8888,15239 L 8984,15294 L 8959,15337 L 8934,15381 L 8838,15325 L 8863,15282 L 8888,15239 z "
                 id="path3033" />
            </g>
            <g
               id="g3035" />
          </g>
        </g>
      </g>
    </g>
  </g>
</svg>
